<svg width="21" height="22" viewBox="0 0 21 22" fill="none" xmlns="http://www.w3.org/2000/svg">
<path d="M2.94 21.976C1.952 21.6813 1.28467 21.3953 0.938 21.118C0.591333 20.858 0.418 20.494 0.418 20.026C0.418 19.506 0.539333 18.778 0.782 17.842C1.02467 16.8887 1.33667 15.8313 1.718 14.67C2.11667 13.5087 2.56733 12.2953 3.07 11.03C3.57267 9.76467 4.084 8.55133 4.604 7.39C5.124 6.22867 5.62667 5.17133 6.112 4.218C6.61467 3.24733 7.05667 2.49333 7.438 1.956L7.256 0.863998C7.49867 0.863998 7.83667 0.924665 8.27 1.046C8.70333 1.16733 9.13667 1.31467 9.57 1.488C10.0207 1.66133 10.4107 1.84333 10.74 2.034C11.0867 2.20733 11.2773 2.35467 11.312 2.476C11.2253 2.892 11.156 3.52467 11.104 4.374C11.052 5.206 11.026 6.09867 11.026 7.052C11.026 8.94133 11.0953 10.796 11.234 12.616C11.39 14.4187 11.7367 16.256 12.274 18.128C12.5513 16.7413 12.846 15.3633 13.158 13.994C13.4873 12.6073 13.8253 11.29 14.172 10.042C14.5187 8.77667 14.8653 7.60667 15.212 6.532C15.5587 5.45733 15.888 4.52133 16.2 3.724C16.5293 2.90933 16.8327 2.27667 17.11 1.826C17.3873 1.358 17.6387 1.10667 17.864 1.072C18.0547 1.10667 18.2627 1.18467 18.488 1.306C18.7133 1.41 18.93 1.54 19.138 1.696C19.346 1.852 19.5367 2.02533 19.71 2.216C19.8833 2.40667 20.022 2.59733 20.126 2.788C19.5713 3.01333 19.0167 3.542 18.462 4.374C17.9247 5.206 17.4047 6.22 16.902 7.416C16.4167 8.59467 15.9573 9.87733 15.524 11.264C15.108 12.6507 14.7353 14.02 14.406 15.372C14.094 16.7067 13.8427 17.946 13.652 19.09C13.4787 20.234 13.3833 21.1527 13.366 21.846C13.366 21.8807 13.3747 21.9067 13.392 21.924C13.34 21.9413 13.2793 21.95 13.21 21.95C13.158 21.95 13.106 21.95 13.054 21.95C12.2567 21.95 11.546 21.846 10.922 21.638C10.3153 21.4473 9.91667 21.17 9.726 20.806C9.362 19.35 9.05867 17.946 8.816 16.594C8.57333 15.242 8.36533 13.89 8.192 12.538C8.036 11.186 7.906 9.82533 7.802 8.456C7.71533 7.06933 7.646 5.622 7.594 4.114C7.26467 4.634 6.918 5.31867 6.554 6.168C6.19 7 5.83467 7.91867 5.488 8.924C5.14133 9.92933 4.80333 10.9867 4.474 12.096C4.162 13.2053 3.88467 14.2887 3.642 15.346C3.39933 16.4033 3.20867 17.4087 3.07 18.362C2.93133 19.298 2.862 20.1127 2.862 20.806C2.862 21.17 2.862 21.43 2.862 21.586C2.87933 21.742 2.90533 21.872 2.94 21.976Z" fill="#181818"/>
</svg>
